<?xml version="1.0" standalone="no"?>
<!DOCTYPE svg PUBLIC "-//W3C//DTD SVG 20010904//EN"
 "http://www.w3.org/TR/2001/REC-SVG-20010904/DTD/svg10.dtd">
<svg version="1.0" xmlns="http://www.w3.org/2000/svg"
 width="507.000000pt" height="507.000000pt" viewBox="0 0 507.000000 507.000000"
 preserveAspectRatio="xMidYMid meet">
<metadata>
Created by potrace 1.14, written by Peter Selinger 2001-2017
</metadata>
<g transform="translate(0.000000,507.000000) scale(0.100000,-0.100000)"
fill="#000000" stroke="none">
<path d="M2468 4895 c-2 -2 -39 -6 -84 -9 -45 -4 -92 -9 -105 -11 -13 -3 -44
-8 -69 -11 -25 -3 -55 -7 -67 -10 -54 -10 -77 -15 -83 -19 -4 -2 -22 -7 -41
-10 -19 -3 -59 -13 -89 -23 -30 -9 -58 -17 -62 -18 -5 -1 -10 -3 -13 -4 -3 -1
-9 -4 -15 -5 -5 -1 -12 -4 -15 -5 -3 -1 -8 -3 -12 -5 -8 -2 -12 -3 -108 -40
-76 -29 -198 -85 -205 -94 -3 -3 -11 -7 -18 -9 -7 -1 -42 -20 -78 -42 -37 -22
-68 -40 -70 -40 -2 0 -52 -35 -110 -77 -58 -43 -113 -82 -122 -88 -19 -12 -83
-69 -175 -155 -76 -71 -191 -203 -253 -290 -21 -30 -41 -57 -44 -60 -40 -35
-226 -378 -255 -470 -1 -3 -7 -17 -13 -33 -22 -52 -77 -225 -88 -272 -1 -5 -6
-28 -12 -50 -6 -22 -13 -56 -16 -75 -3 -19 -8 -46 -11 -59 -25 -126 -44 -388
-29 -412 2 -4 0 -10 -6 -14 -6 -4 -8 -10 -5 -15 3 -4 7 -52 10 -107 3 -54 7
-116 10 -138 7 -49 22 -140 30 -177 3 -16 7 -39 9 -53 5 -25 7 -34 28 -110 17
-66 49 -169 58 -190 4 -11 25 -63 46 -115 63 -157 125 -270 232 -425 99 -143
130 -182 262 -321 109 -114 305 -279 365 -306 14 -6 25 -15 25 -19 0 -4 9 -11
20 -14 11 -3 26 -12 32 -19 7 -6 40 -27 73 -45 33 -19 75 -42 93 -52 17 -10
32 -16 32 -12 0 3 8 -1 18 -9 46 -40 416 -171 542 -192 14 -3 48 -9 75 -15
134 -28 227 -35 435 -36 173 0 294 7 365 20 17 4 64 13 105 22 41 8 82 16 90
18 171 34 447 146 663 268 48 27 188 124 263 183 87 68 311 285 359 349 17 21
42 53 56 70 108 126 317 517 363 680 2 6 6 17 9 25 9 21 57 192 62 221 3 13 9
47 14 74 10 47 18 97 27 155 21 145 21 447 0 590 -2 14 -7 50 -11 80 -4 30
-11 71 -15 90 -5 19 -11 46 -14 60 -98 491 -416 1011 -815 1330 -17 14 -43 35
-58 48 -45 36 -173 122 -183 122 -6 0 -10 3 -10 8 0 4 -21 19 -47 32 -27 14
-50 28 -53 32 -3 4 -21 14 -40 23 -19 8 -42 19 -50 24 -23 14 -140 67 -201 91
-197 79 -427 133 -659 156 -64 6 -337 13 -342 9z"/>
</g>
</svg>
